# MagicaVoxel @ Ephtracy

# group
o 

# material
mtllib Tile.mtl
usemtl palette

# normals
vn -1 0 0
vn 1 0 0
vn 0 0 1
vn 0 0 -1
vn 0 -1 0
vn 0 1 0

# texcoords
vt 0.294922 0.5
vt 0.298828 0.5
vt 0.302734 0.5
vt 0.373047 0.5
vt 0.439453 0.5
vt 0.466797 0.5

# verts
v -0.5 0 0.5
v -0.5 0 -0.5
v -0.5 0.4 0.5
v -0.5 0.4 0.4
v -0.5 0.4 0.1
v -0.5 0.4 0
v -0.5 0.5 0.4
v -0.5 0.5 0.3
v -0.5 0.5 0.2
v -0.5 0.5 0.1
v -0.5 0.5 0
v -0.5 0.5 -0.3
v -0.5 0.5 -0.4
v -0.5 0.5 -0.5
v -0.5 0.6 0.5
v -0.5 0.6 0.4
v -0.5 0.6 0.1
v -0.5 0.6 0
v -0.5 0.6 -0.1
v -0.5 0.6 -0.2
v -0.5 0.6 -0.3
v -0.5 0.6 -0.4
v -0.5 0.6 -0.5
v -0.5 0.7 0.4
v -0.5 0.7 0.3
v -0.5 0.7 0.2
v -0.5 0.7 0.1
v -0.5 0.7 0
v -0.5 0.7 -0.1
v -0.5 0.7 -0.2
v -0.5 0.7 -0.4
v -0.5 0.7 -0.5
v -0.5 0.8 0.4
v -0.5 0.8 0.3
v -0.5 0.8 0.2
v -0.5 0.8 0.1
v -0.5 0.8 0
v -0.5 0.8 -0.1
v -0.5 0.8 -0.2
v -0.5 0.8 -0.4
v -0.5 0.8 -0.5
v -0.5 0.9 0.5
v -0.5 0.9 0.4
v -0.5 0.9 0.2
v -0.5 0.9 0.1
v -0.5 0.9 0
v -0.5 0.9 -0.1
v -0.5 0.9 -0.2
v -0.5 0.9 -0.3
v -0.5 0.9 -0.4
v -0.5 0.9 -0.5
v -0.5 1 0.5
v -0.5 1 0.4
v -0.5 1 0.1
v -0.5 1 0
v -0.5 1 -0.2
v -0.5 1 -0.3
v -0.5 1 -0.4
v -0.5 1 -0.5
v 0.5 0 0.5
v 0.5 0 -0.5
v 0.5 0.4 0.5
v 0.5 0.4 0.4
v 0.5 0.4 0.1
v 0.5 0.4 0
v 0.5 0.4 -0.3
v 0.5 0.4 -0.4
v 0.5 0.5 0.5
v 0.5 0.5 0.4
v 0.5 0.5 0.3
v 0.5 0.5 0.2
v 0.5 0.5 0.1
v 0.5 0.5 0
v 0.5 0.5 -0.1
v 0.5 0.5 -0.3
v 0.5 0.5 -0.4
v 0.5 0.5 -0.5
v 0.5 0.6 0.5
v 0.5 0.6 0.4
v 0.5 0.6 0.3
v 0.5 0.6 0.2
v 0.5 0.6 0.1
v 0.5 0.6 0
v 0.5 0.6 -0.1
v 0.5 0.6 -0.2
v 0.5 0.6 -0.3
v 0.5 0.6 -0.4
v 0.5 0.6 -0.5
v 0.5 0.7 0.1
v 0.5 0.7 0
v 0.5 0.7 -0.1
v 0.5 0.7 -0.2
v 0.5 0.7 -0.3
v 0.5 0.7 -0.4
v 0.5 0.7 -0.5
v 0.5 0.8 0.4
v 0.5 0.8 0.3
v 0.5 0.8 0.2
v 0.5 0.8 0.1
v 0.5 0.8 0
v 0.5 0.8 -0.1
v 0.5 0.8 -0.4
v 0.5 0.8 -0.5
v 0.5 0.9 0.5
v 0.5 0.9 0.4
v 0.5 0.9 0.3
v 0.5 0.9 0.2
v 0.5 0.9 0.1
v 0.5 0.9 0
v 0.5 0.9 -0.2
v 0.5 0.9 -0.3
v 0.5 1 0.5
v 0.5 1 0.4
v 0.5 1 0.3
v 0.5 1 0.1
v 0.5 1 -0.2
v 0.5 1 -0.3
v 0.5 1 -0.4
v 0.5 1 -0.5
v -0.5 0 0.5
v -0.5 0.4 0.5
v -0.5 0.6 0.5
v -0.5 0.9 0.5
v -0.5 1 0.5
v -0.4 0.4 0.5
v -0.4 0.5 0.5
v -0.4 0.6 0.5
v -0.4 0.7 0.5
v -0.4 0.8 0.5
v -0.4 0.9 0.5
v -0.3 0.4 0.5
v -0.3 0.5 0.5
v -0.3 0.6 0.5
v -0.3 0.7 0.5
v -0.3 0.8 0.5
v -0.2 0.3 0.5
v -0.2 0.4 0.5
v -0.2 0.5 0.5
v -0.2 0.6 0.5
v -0.2 0.8 0.5
v -0.2 0.9 0.5
v -0.2 1 0.5
v -0.1 0.3 0.5
v -0.1 0.4 0.5
v -0.1 0.5 0.5
v -0.1 0.6 0.5
v -0.1 0.8 0.5
v -0.1 0.9 0.5
v -0.1 1 0.5
v 0 0.7 0.5
v 0 0.8 0.5
v 0.1 0.4 0.5
v 0.1 0.5 0.5
v 0.1 0.7 0.5
v 0.1 0.9 0.5
v 0.1 1 0.5
v 0.2 0.3 0.5
v 0.2 0.4 0.5
v 0.2 0.5 0.5
v 0.2 0.6 0.5
v 0.2 0.7 0.5
v 0.2 0.8 0.5
v 0.3 0.3 0.5
v 0.3 0.4 0.5
v 0.3 0.5 0.5
v 0.3 0.6 0.5
v 0.3 0.7 0.5
v 0.3 0.8 0.5
v 0.3 0.9 0.5
v 0.3 1 0.5
v 0.4 0.4 0.5
v 0.4 0.5 0.5
v 0.4 0.6 0.5
v 0.4 0.7 0.5
v 0.4 0.9 0.5
v 0.4 1 0.5
v 0.5 0 0.5
v 0.5 0.4 0.5
v 0.5 0.5 0.5
v 0.5 0.6 0.5
v 0.5 0.9 0.5
v 0.5 1 0.5
v -0.5 0 -0.5
v -0.5 0.5 -0.5
v -0.5 0.6 -0.5
v -0.5 0.7 -0.5
v -0.5 0.8 -0.5
v -0.5 0.9 -0.5
v -0.5 1 -0.5
v -0.4 0.5 -0.5
v -0.4 0.6 -0.5
v -0.4 0.7 -0.5
v -0.4 0.8 -0.5
v -0.4 0.9 -0.5
v -0.4 1 -0.5
v -0.3 0.4 -0.5
v -0.3 0.5 -0.5
v -0.3 0.6 -0.5
v -0.3 0.7 -0.5
v -0.3 0.9 -0.5
v -0.3 1 -0.5
v -0.2 0.4 -0.5
v -0.2 0.5 -0.5
v -0.1 0.5 -0.5
v -0.1 0.6 -0.5
v -0.1 0.9 -0.5
v -0.1 1 -0.5
v 0 0.9 -0.5
v 0 1 -0.5
v 0.1 0.5 -0.5
v 0.1 0.6 -0.5
v 0.1 0.8 -0.5
v 0.1 0.9 -0.5
v 0.2 0.5 -0.5
v 0.2 0.6 -0.5
v 0.2 0.7 -0.5
v 0.2 0.8 -0.5
v 0.2 0.9 -0.5
v 0.2 1 -0.5
v 0.3 0.6 -0.5
v 0.3 0.7 -0.5
v 0.3 0.9 -0.5
v 0.4 0.5 -0.5
v 0.4 0.6 -0.5
v 0.4 0.7 -0.5
v 0.4 0.8 -0.5
v 0.4 1 -0.5
v 0.5 0 -0.5
v 0.5 0.5 -0.5
v 0.5 0.6 -0.5
v 0.5 0.7 -0.5
v 0.5 0.8 -0.5
v 0.5 1 -0.5
v -0.5 0 0.5
v 0.5 0 0.5
v -0.5 0 -0.5
v 0.5 0 -0.5
v -0.5 1 0.5
v -0.2 1 0.5
v -0.1 1 0.5
v 0.1 1 0.5
v 0.3 1 0.5
v 0.4 1 0.5
v 0.5 1 0.5
v -0.5 1 0.4
v -0.4 1 0.4
v -0.2 1 0.4
v -0.1 1 0.4
v 0.1 1 0.4
v 0.2 1 0.4
v 0.3 1 0.4
v 0.4 1 0.4
v 0.5 1 0.4
v -0.4 1 0.3
v -0.3 1 0.3
v -0.2 1 0.3
v -0.1 1 0.3
v 0 1 0.3
v 0.1 1 0.3
v 0.2 1 0.3
v 0.3 1 0.3
v 0.4 1 0.3
v 0.5 1 0.3
v -0.4 1 0.2
v -0.3 1 0.2
v -0.1 1 0.2
v 0 1 0.2
v 0.1 1 0.2
v 0.2 1 0.2
v -0.5 1 0.1
v -0.4 1 0.1
v -0.3 1 0.1
v 0 1 0.1
v 0.2 1 0.1
v 0.4 1 0.1
v 0.5 1 0.1
v -0.5 1 0
v -0.4 1 0
v -0.3 1 0
v -0.2 1 0
v -0.1 1 0
v 0 1 0
v 0.1 1 0
v 0.2 1 0
v 0.3 1 0
v 0.4 1 0
v -0.4 1 -0.1
v -0.3 1 -0.1
v -0.2 1 -0.1
v -0.1 1 -0.1
v 0 1 -0.1
v 0.1 1 -0.1
v 0.2 1 -0.1
v 0.3 1 -0.1
v 0.4 1 -0.1
v -0.5 1 -0.2
v -0.4 1 -0.2
v -0.3 1 -0.2
v -0.2 1 -0.2
v 0 1 -0.2
v 0.1 1 -0.2
v 0.2 1 -0.2
v 0.3 1 -0.2
v 0.4 1 -0.2
v 0.5 1 -0.2
v -0.5 1 -0.3
v -0.4 1 -0.3
v -0.3 1 -0.3
v -0.2 1 -0.3
v -0.1 1 -0.3
v 0 1 -0.3
v 0.1 1 -0.3
v 0.2 1 -0.3
v 0.4 1 -0.3
v 0.5 1 -0.3
v -0.5 1 -0.4
v -0.4 1 -0.4
v -0.3 1 -0.4
v -0.2 1 -0.4
v -0.1 1 -0.4
v 0 1 -0.4
v 0.1 1 -0.4
v 0.2 1 -0.4
v 0.3 1 -0.4
v 0.4 1 -0.4
v 0.5 1 -0.4
v -0.5 1 -0.5
v -0.4 1 -0.5
v -0.3 1 -0.5
v -0.1 1 -0.5
v 0 1 -0.5
v 0.2 1 -0.5
v 0.4 1 -0.5
v 0.5 1 -0.5

# faces
f 3/4/1 2/4/1 1/4/1
f 4/4/1 2/4/1 3/4/1
f 5/4/1 2/4/1 4/4/1
f 6/4/1 2/4/1 5/4/1
f 7/2/1 4/2/1 3/2/1
f 7/4/1 5/4/1 4/4/1
f 8/4/1 5/4/1 7/4/1
f 9/4/1 5/4/1 8/4/1
f 10/6/1 6/6/1 5/6/1
f 10/4/1 5/4/1 9/4/1
f 11/4/1 2/4/1 6/4/1
f 11/6/1 6/6/1 10/6/1
f 12/4/1 2/4/1 11/4/1
f 13/4/1 2/4/1 12/4/1
f 14/4/1 2/4/1 13/4/1
f 15/2/1 7/2/1 3/2/1
f 16/6/1 8/6/1 7/6/1
f 16/2/1 7/2/1 15/2/1
f 17/6/1 10/6/1 9/6/1
f 17/2/1 11/2/1 10/2/1
f 18/4/1 12/4/1 11/4/1
f 18/2/1 11/2/1 17/2/1
f 19/4/1 12/4/1 18/4/1
f 20/4/1 12/4/1 19/4/1
f 21/1/1 13/1/1 12/1/1
f 21/4/1 12/4/1 20/4/1
f 22/2/1 14/2/1 13/2/1
f 22/1/1 13/1/1 21/1/1
f 23/2/1 14/2/1 22/2/1
f 24/6/1 8/6/1 16/6/1
f 24/3/1 16/3/1 15/3/1
f 25/1/1 9/1/1 8/1/1
f 25/6/1 8/6/1 24/6/1
f 26/6/1 17/6/1 9/6/1
f 26/1/1 9/1/1 25/1/1
f 27/1/1 18/1/1 17/1/1
f 27/6/1 17/6/1 26/6/1
f 28/2/1 19/2/1 18/2/1
f 28/1/1 18/1/1 27/1/1
f 29/4/1 20/4/1 19/4/1
f 29/2/1 19/2/1 28/2/1
f 30/1/1 23/1/1 22/1/1
f 30/4/1 20/4/1 29/4/1
f 30/1/1 21/1/1 20/1/1
f 30/1/1 22/1/1 21/1/1
f 31/1/1 23/1/1 30/1/1
f 32/1/1 23/1/1 31/1/1
f 33/3/1 24/3/1 15/3/1
f 33/3/1 25/3/1 24/3/1
f 34/6/1 26/6/1 25/6/1
f 34/3/1 25/3/1 33/3/1
f 35/1/1 27/1/1 26/1/1
f 35/6/1 26/6/1 34/6/1
f 36/3/1 29/3/1 28/3/1
f 36/1/1 27/1/1 35/1/1
f 36/3/1 28/3/1 27/3/1
f 36/3/1 30/3/1 29/3/1
f 37/3/1 30/3/1 36/3/1
f 38/3/1 30/3/1 37/3/1
f 39/1/1 31/1/1 30/1/1
f 39/3/1 30/3/1 38/3/1
f 40/6/1 32/6/1 31/6/1
f 40/1/1 31/1/1 39/1/1
f 41/6/1 32/6/1 40/6/1
f 42/3/1 33/3/1 15/3/1
f 43/6/1 35/6/1 34/6/1
f 43/3/1 33/3/1 42/3/1
f 43/6/1 34/6/1 33/6/1
f 44/3/1 36/3/1 35/3/1
f 44/6/1 35/6/1 43/6/1
f 45/6/1 37/6/1 36/6/1
f 45/3/1 36/3/1 44/3/1
f 46/3/1 38/3/1 37/3/1
f 46/6/1 37/6/1 45/6/1
f 47/6/1 39/6/1 38/6/1
f 47/3/1 38/3/1 46/3/1
f 47/6/1 40/6/1 39/6/1
f 48/6/1 40/6/1 47/6/1
f 49/6/1 40/6/1 48/6/1
f 50/3/1 41/3/1 40/3/1
f 50/6/1 40/6/1 49/6/1
f 51/3/1 41/3/1 50/3/1
f 52/6/1 43/6/1 42/6/1
f 53/3/1 45/3/1 44/3/1
f 53/6/1 43/6/1 52/6/1
f 53/3/1 44/3/1 43/3/1
f 54/1/1 46/1/1 45/1/1
f 54/3/1 45/3/1 53/3/1
f 55/3/1 47/3/1 46/3/1
f 55/1/1 46/1/1 54/1/1
f 55/3/1 48/3/1 47/3/1
f 56/1/1 49/1/1 48/1/1
f 56/3/1 48/3/1 55/3/1
f 57/5/1 50/5/1 49/5/1
f 57/1/1 49/1/1 56/1/1
f 58/1/1 51/1/1 50/1/1
f 58/5/1 50/5/1 57/5/1
f 59/1/1 51/1/1 58/1/1
f 60/4/2 61/4/2 62/4/2
f 62/4/2 61/4/2 63/4/2
f 63/4/2 61/4/2 64/4/2
f 64/4/2 61/4/2 65/4/2
f 65/4/2 61/4/2 66/4/2
f 66/4/2 61/4/2 67/4/2
f 62/2/2 63/2/2 68/2/2
f 63/4/2 64/4/2 69/4/2
f 68/2/2 63/2/2 69/2/2
f 69/4/2 64/4/2 70/4/2
f 70/4/2 64/4/2 71/4/2
f 64/3/2 65/3/2 72/3/2
f 71/4/2 64/4/2 72/4/2
f 65/4/2 66/4/2 73/4/2
f 72/3/2 65/3/2 73/3/2
f 73/4/2 66/4/2 74/4/2
f 66/1/2 67/1/2 75/1/2
f 74/4/2 66/4/2 75/4/2
f 67/4/2 61/4/2 76/4/2
f 75/1/2 67/1/2 76/1/2
f 76/4/2 61/4/2 77/4/2
f 68/3/2 69/3/2 78/3/2
f 69/1/2 70/1/2 79/1/2
f 78/3/2 69/3/2 79/3/2
f 70/3/2 71/3/2 80/3/2
f 79/1/2 70/1/2 80/1/2
f 71/1/2 72/1/2 81/1/2
f 80/3/2 71/3/2 81/3/2
f 73/1/2 74/1/2 81/1/2
f 72/1/2 73/1/2 81/1/2
f 81/1/2 74/1/2 82/1/2
f 82/1/2 74/1/2 83/1/2
f 74/4/2 75/4/2 84/4/2
f 83/1/2 74/1/2 84/1/2
f 84/4/2 75/4/2 85/4/2
f 75/6/2 76/6/2 86/6/2
f 85/4/2 75/4/2 86/4/2
f 76/2/2 77/2/2 87/2/2
f 86/6/2 76/6/2 87/6/2
f 87/2/2 77/2/2 88/2/2
f 82/6/2 83/6/2 89/6/2
f 79/3/2 80/3/2 89/3/2
f 80/3/2 81/3/2 89/3/2
f 81/3/2 82/3/2 89/3/2
f 84/1/2 85/1/2 90/1/2
f 89/6/2 83/6/2 90/6/2
f 83/1/2 84/1/2 90/1/2
f 90/1/2 85/1/2 91/1/2
f 85/3/2 86/3/2 92/3/2
f 91/1/2 85/1/2 92/1/2
f 87/1/2 88/1/2 93/1/2
f 92/3/2 86/3/2 93/3/2
f 86/1/2 87/1/2 93/1/2
f 93/1/2 88/1/2 94/1/2
f 94/1/2 88/1/2 95/1/2
f 78/6/2 79/6/2 96/6/2
f 79/3/2 89/3/2 96/3/2
f 96/3/2 89/3/2 97/3/2
f 97/3/2 89/3/2 98/3/2
f 90/1/2 91/1/2 99/1/2
f 98/3/2 89/3/2 99/3/2
f 89/1/2 90/1/2 99/1/2
f 99/1/2 91/1/2 100/1/2
f 91/6/2 92/6/2 101/6/2
f 100/1/2 91/1/2 101/1/2
f 94/5/2 95/5/2 102/5/2
f 92/1/2 93/1/2 102/1/2
f 93/1/2 94/1/2 102/1/2
f 102/5/2 95/5/2 103/5/2
f 78/6/2 96/6/2 104/6/2
f 96/1/2 97/1/2 105/1/2
f 104/6/2 96/6/2 105/6/2
f 97/3/2 98/3/2 106/3/2
f 105/1/2 97/1/2 106/1/2
f 98/5/2 99/5/2 107/5/2
f 106/3/2 98/3/2 107/3/2
f 99/3/2 100/3/2 108/3/2
f 107/5/2 99/5/2 108/5/2
f 100/6/2 101/6/2 109/6/2
f 108/3/2 100/3/2 109/3/2
f 101/6/2 92/6/2 110/6/2
f 109/6/2 101/6/2 110/6/2
f 92/1/2 102/1/2 110/1/2
f 110/1/2 102/1/2 111/1/2
f 104/5/2 105/5/2 112/5/2
f 105/6/2 106/6/2 113/6/2
f 112/5/2 105/5/2 113/5/2
f 106/1/2 107/1/2 114/1/2
f 113/6/2 106/6/2 114/6/2
f 107/1/2 108/1/2 114/1/2
f 108/3/2 109/3/2 115/3/2
f 114/1/2 108/1/2 115/1/2
f 109/3/2 110/3/2 115/3/2
f 110/6/2 111/6/2 116/6/2
f 115/3/2 110/3/2 116/3/2
f 111/1/2 102/1/2 117/1/2
f 116/6/2 111/6/2 117/6/2
f 102/3/2 103/3/2 118/3/2
f 117/1/2 102/1/2 118/1/2
f 118/3/2 103/3/2 119/3/2
f 125/4/3 121/4/3 120/4/3
f 125/2/3 122/2/3 121/2/3
f 126/2/3 122/2/3 125/2/3
f 127/3/3 123/3/3 122/3/3
f 127/2/3 122/2/3 126/2/3
f 128/3/3 123/3/3 127/3/3
f 129/3/3 123/3/3 128/3/3
f 130/6/3 124/6/3 123/6/3
f 130/3/3 123/3/3 129/3/3
f 131/4/3 126/4/3 125/4/3
f 131/4/3 125/4/3 120/4/3
f 132/3/3 127/3/3 126/3/3
f 132/4/3 126/4/3 131/4/3
f 133/1/3 128/1/3 127/1/3
f 133/3/3 127/3/3 132/3/3
f 134/3/3 129/3/3 128/3/3
f 134/1/3 128/1/3 133/1/3
f 135/1/3 130/1/3 129/1/3
f 135/3/3 129/3/3 134/3/3
f 136/4/3 131/4/3 120/4/3
f 137/1/3 132/1/3 131/1/3
f 137/4/3 131/4/3 136/4/3
f 138/6/3 133/6/3 132/6/3
f 138/1/3 132/1/3 137/1/3
f 139/1/3 134/1/3 133/1/3
f 139/6/3 133/6/3 138/6/3
f 139/1/3 135/1/3 134/1/3
f 140/1/3 130/1/3 135/1/3
f 140/1/3 135/1/3 139/1/3
f 141/6/3 124/6/3 130/6/3
f 141/1/3 130/1/3 140/1/3
f 142/6/3 124/6/3 141/6/3
f 143/3/3 137/3/3 136/3/3
f 143/4/3 136/4/3 120/4/3
f 144/1/3 138/1/3 137/1/3
f 144/3/3 137/3/3 143/3/3
f 144/1/3 139/1/3 138/1/3
f 145/1/3 139/1/3 144/1/3
f 146/3/3 140/3/3 139/3/3
f 146/1/3 139/1/3 145/1/3
f 147/1/3 141/1/3 140/1/3
f 147/3/3 140/3/3 146/3/3
f 147/1/3 142/1/3 141/1/3
f 148/1/3 142/1/3 147/1/3
f 149/1/3 142/1/3 148/1/3
f 150/1/3 147/1/3 146/1/3
f 151/6/3 148/6/3 147/6/3
f 151/1/3 147/1/3 150/1/3
f 152/4/3 145/4/3 144/4/3
f 152/4/3 144/4/3 143/4/3
f 153/3/3 146/3/3 145/3/3
f 153/4/3 145/4/3 152/4/3
f 154/6/3 151/6/3 150/6/3
f 154/1/3 150/1/3 146/1/3
f 155/6/3 148/6/3 151/6/3
f 155/6/3 151/6/3 154/6/3
f 155/3/3 149/3/3 148/3/3
f 156/3/3 149/3/3 155/3/3
f 157/4/3 143/4/3 120/4/3
f 157/4/3 152/4/3 143/4/3
f 158/6/3 153/6/3 152/6/3
f 158/4/3 152/4/3 157/4/3
f 159/3/3 146/3/3 153/3/3
f 159/6/3 153/6/3 158/6/3
f 160/1/3 154/1/3 146/1/3
f 160/3/3 146/3/3 159/3/3
f 161/3/3 155/3/3 154/3/3
f 161/1/3 154/1/3 160/1/3
f 162/3/3 155/3/3 161/3/3
f 163/3/3 158/3/3 157/3/3
f 163/4/3 157/4/3 120/4/3
f 164/1/3 159/1/3 158/1/3
f 164/3/3 158/3/3 163/3/3
f 164/1/3 160/1/3 159/1/3
f 165/1/3 160/1/3 164/1/3
f 166/6/3 162/6/3 161/6/3
f 166/1/3 160/1/3 165/1/3
f 166/6/3 161/6/3 160/6/3
f 167/6/3 162/6/3 166/6/3
f 168/3/3 155/3/3 162/3/3
f 168/6/3 162/6/3 167/6/3
f 169/1/3 156/1/3 155/1/3
f 169/3/3 155/3/3 168/3/3
f 170/1/3 156/1/3 169/1/3
f 171/3/3 165/3/3 164/3/3
f 171/4/3 164/4/3 163/4/3
f 172/1/3 167/1/3 166/1/3
f 172/3/3 165/3/3 171/3/3
f 172/1/3 166/1/3 165/1/3
f 173/1/3 167/1/3 172/1/3
f 174/3/3 168/3/3 167/3/3
f 174/1/3 167/1/3 173/1/3
f 174/3/3 170/3/3 169/3/3
f 174/3/3 169/3/3 168/3/3
f 175/3/3 170/3/3 174/3/3
f 176/3/3 170/3/3 175/3/3
f 177/4/3 163/4/3 120/4/3
f 177/4/3 171/4/3 163/4/3
f 178/2/3 172/2/3 171/2/3
f 178/4/3 171/4/3 177/4/3
f 179/3/3 173/3/3 172/3/3
f 179/2/3 172/2/3 178/2/3
f 180/6/3 174/6/3 173/6/3
f 180/3/3 173/3/3 179/3/3
f 180/6/3 175/6/3 174/6/3
f 181/5/3 176/5/3 175/5/3
f 181/6/3 175/6/3 180/6/3
f 182/5/3 176/5/3 181/5/3
f 183/4/4 184/4/4 190/4/4
f 184/2/4 185/2/4 190/2/4
f 185/1/4 186/1/4 191/1/4
f 190/2/4 185/2/4 191/2/4
f 186/6/4 187/6/4 192/6/4
f 191/1/4 186/1/4 192/1/4
f 187/3/4 188/3/4 193/3/4
f 192/6/4 187/6/4 193/6/4
f 188/1/4 189/1/4 194/1/4
f 193/3/4 188/3/4 194/3/4
f 194/1/4 189/1/4 195/1/4
f 183/4/4 190/4/4 196/4/4
f 190/4/4 191/4/4 196/4/4
f 196/4/4 191/4/4 197/4/4
f 191/3/4 192/3/4 198/3/4
f 197/4/4 191/4/4 198/4/4
f 192/1/4 193/1/4 199/1/4
f 198/3/4 192/3/4 199/3/4
f 193/1/4 194/1/4 199/1/4
f 194/6/4 195/6/4 200/6/4
f 199/1/4 194/1/4 200/1/4
f 200/6/4 195/6/4 201/6/4
f 196/6/4 197/6/4 202/6/4
f 183/4/4 196/4/4 202/4/4
f 197/3/4 198/3/4 203/3/4
f 202/6/4 197/6/4 203/6/4
f 198/3/4 199/3/4 203/3/4
f 199/3/4 200/3/4 203/3/4
f 200/3/4 201/3/4 203/3/4
f 202/4/4 203/4/4 204/4/4
f 203/3/4 201/3/4 204/3/4
f 204/3/4 201/3/4 205/3/4
f 205/3/4 201/3/4 206/3/4
f 206/3/4 201/3/4 207/3/4
f 205/3/4 206/3/4 208/3/4
f 206/1/4 207/1/4 208/1/4
f 208/1/4 207/1/4 209/1/4
f 202/4/4 204/4/4 210/4/4
f 204/4/4 205/4/4 210/4/4
f 205/3/4 208/3/4 211/3/4
f 210/4/4 205/4/4 211/4/4
f 211/3/4 208/3/4 212/3/4
f 208/6/4 209/6/4 213/6/4
f 212/3/4 208/3/4 213/3/4
f 202/4/4 210/4/4 214/4/4
f 210/1/4 211/1/4 214/1/4
f 211/3/4 212/3/4 215/3/4
f 214/1/4 211/1/4 215/1/4
f 215/3/4 212/3/4 216/3/4
f 212/6/4 213/6/4 217/6/4
f 216/3/4 212/3/4 217/3/4
f 213/6/4 209/6/4 218/6/4
f 217/6/4 213/6/4 218/6/4
f 218/6/4 209/6/4 219/6/4
f 215/1/4 216/1/4 220/1/4
f 214/4/4 215/4/4 220/4/4
f 216/3/4 217/3/4 221/3/4
f 220/1/4 216/1/4 221/1/4
f 217/3/4 218/3/4 221/3/4
f 218/1/4 219/1/4 222/1/4
f 221/3/4 218/3/4 222/3/4
f 202/4/4 214/4/4 223/4/4
f 214/4/4 220/4/4 223/4/4
f 220/6/4 221/6/4 224/6/4
f 223/4/4 220/4/4 224/4/4
f 221/1/4 222/1/4 225/1/4
f 224/6/4 221/6/4 225/6/4
f 225/1/4 222/1/4 226/1/4
f 222/1/4 219/1/4 227/1/4
f 226/1/4 222/1/4 227/1/4
f 183/4/4 202/4/4 228/4/4
f 202/4/4 223/4/4 228/4/4
f 223/2/4 224/2/4 229/2/4
f 228/4/4 223/4/4 229/4/4
f 224/1/4 225/1/4 230/1/4
f 229/2/4 224/2/4 230/2/4
f 225/5/4 226/5/4 231/5/4
f 230/1/4 225/1/4 231/1/4
f 226/3/4 227/3/4 232/3/4
f 231/5/4 226/5/4 232/5/4
f 232/3/4 227/3/4 233/3/4
f 236/4/5 235/4/5 234/4/5
f 237/4/5 235/4/5 236/4/5
f 238/6/6 239/6/6 245/6/6
f 245/6/6 239/6/6 246/6/6
f 239/1/6 240/1/6 247/1/6
f 246/6/6 239/6/6 247/6/6
f 240/3/6 241/3/6 248/3/6
f 247/1/6 240/1/6 248/1/6
f 241/1/6 242/1/6 249/1/6
f 248/3/6 241/3/6 249/3/6
f 249/1/6 242/1/6 250/1/6
f 242/3/6 243/3/6 251/3/6
f 250/1/6 242/1/6 251/1/6
f 243/5/6 244/5/6 252/5/6
f 251/3/6 243/3/6 252/3/6
f 252/5/6 244/5/6 253/5/6
f 245/3/6 246/3/6 254/3/6
f 246/1/6 247/1/6 254/1/6
f 254/1/6 247/1/6 255/1/6
f 247/6/6 248/6/6 256/6/6
f 255/1/6 247/1/6 256/1/6
f 248/1/6 249/1/6 257/1/6
f 256/6/6 248/6/6 257/6/6
f 257/1/6 249/1/6 258/1/6
f 249/3/6 250/3/6 259/3/6
f 258/1/6 249/1/6 259/1/6
f 250/6/6 251/6/6 260/6/6
f 259/3/6 250/3/6 260/3/6
f 251/1/6 252/1/6 261/1/6
f 260/6/6 251/6/6 261/6/6
f 252/6/6 253/6/6 262/6/6
f 261/1/6 252/1/6 262/1/6
f 262/6/6 253/6/6 263/6/6
f 254/6/6 255/6/6 264/6/6
f 245/3/6 254/3/6 264/3/6
f 255/1/6 256/1/6 265/1/6
f 264/6/6 255/6/6 265/6/6
f 256/1/6 257/1/6 265/1/6
f 257/3/6 258/3/6 266/3/6
f 265/1/6 257/1/6 266/1/6
f 258/5/6 259/5/6 267/5/6
f 266/3/6 258/3/6 267/3/6
f 260/1/6 261/1/6 268/1/6
f 267/5/6 259/5/6 268/5/6
f 259/1/6 260/1/6 268/1/6
f 268/1/6 261/1/6 269/1/6
f 245/3/6 264/3/6 270/3/6
f 264/1/6 265/1/6 271/1/6
f 270/3/6 264/3/6 271/3/6
f 265/3/6 266/3/6 272/3/6
f 271/1/6 265/1/6 272/1/6
f 266/1/6 267/1/6 273/1/6
f 267/3/6 268/3/6 273/3/6
f 268/3/6 269/3/6 273/3/6
f 269/1/6 261/1/6 274/1/6
f 273/3/6 269/3/6 274/3/6
f 261/6/6 262/6/6 275/6/6
f 262/1/6 263/1/6 275/1/6
f 275/1/6 263/1/6 276/1/6
f 270/1/6 271/1/6 277/1/6
f 271/3/6 272/3/6 278/3/6
f 277/1/6 271/1/6 278/1/6
f 272/3/6 266/3/6 279/3/6
f 278/3/6 272/3/6 279/3/6
f 279/3/6 266/3/6 280/3/6
f 266/1/6 273/1/6 281/1/6
f 280/3/6 266/3/6 281/3/6
f 273/1/6 274/1/6 281/1/6
f 281/1/6 274/1/6 282/1/6
f 282/1/6 274/1/6 283/1/6
f 274/1/6 261/1/6 284/1/6
f 283/1/6 274/1/6 284/1/6
f 261/6/6 275/6/6 285/6/6
f 284/1/6 261/1/6 285/1/6
f 275/3/6 276/3/6 286/3/6
f 285/6/6 275/6/6 286/6/6
f 277/3/6 278/3/6 287/3/6
f 278/3/6 279/3/6 287/3/6
f 279/6/6 280/6/6 288/6/6
f 287/3/6 279/3/6 288/3/6
f 280/1/6 281/1/6 289/1/6
f 288/6/6 280/6/6 289/6/6
f 281/1/6 282/1/6 289/1/6
f 289/1/6 282/1/6 290/1/6
f 282/6/6 283/6/6 291/6/6
f 290/1/6 282/1/6 291/1/6
f 283/1/6 284/1/6 292/1/6
f 291/6/6 283/6/6 292/6/6
f 284/3/6 285/3/6 293/3/6
f 292/1/6 284/1/6 293/1/6
f 285/1/6 286/1/6 294/1/6
f 293/3/6 285/3/6 294/3/6
f 286/3/6 276/3/6 295/3/6
f 294/1/6 286/1/6 295/1/6
f 277/3/6 287/3/6 296/3/6
f 287/1/6 288/1/6 297/1/6
f 296/3/6 287/3/6 297/3/6
f 288/1/6 289/1/6 297/1/6
f 297/1/6 289/1/6 298/1/6
f 289/3/6 290/3/6 299/3/6
f 298/1/6 289/1/6 299/1/6
f 293/1/6 294/1/6 300/1/6
f 292/1/6 293/1/6 300/1/6
f 290/1/6 291/1/6 300/1/6
f 291/1/6 292/1/6 300/1/6
f 300/1/6 294/1/6 301/1/6
f 301/1/6 294/1/6 302/1/6
f 294/3/6 295/3/6 303/3/6
f 302/1/6 294/1/6 303/1/6
f 295/3/6 276/3/6 304/3/6
f 303/3/6 295/3/6 304/3/6
f 304/3/6 276/3/6 305/3/6
f 297/1/6 298/1/6 306/1/6
f 296/1/6 297/1/6 306/1/6
f 306/1/6 298/1/6 307/1/6
f 298/3/6 299/3/6 308/3/6
f 307/1/6 298/1/6 308/1/6
f 299/3/6 290/3/6 309/3/6
f 308/3/6 299/3/6 309/3/6
f 290/1/6 300/1/6 310/1/6
f 309/3/6 290/3/6 310/3/6
f 300/3/6 301/3/6 311/3/6
f 310/1/6 300/1/6 311/1/6
f 301/5/6 302/5/6 312/5/6
f 311/3/6 301/3/6 312/3/6
f 302/3/6 303/3/6 313/3/6
f 312/5/6 302/5/6 313/5/6
f 304/6/6 305/6/6 314/6/6
f 303/1/6 304/1/6 314/1/6
f 314/6/6 305/6/6 315/6/6
f 306/5/6 307/5/6 316/5/6
f 307/1/6 308/1/6 317/1/6
f 316/5/6 307/5/6 317/5/6
f 308/1/6 309/1/6 317/1/6
f 317/1/6 309/1/6 318/1/6
f 310/3/6 311/3/6 319/3/6
f 318/1/6 309/1/6 319/1/6
f 309/3/6 310/3/6 319/3/6
f 319/3/6 311/3/6 320/3/6
f 311/1/6 312/1/6 321/1/6
f 320/3/6 311/3/6 321/3/6
f 312/3/6 313/3/6 322/3/6
f 321/1/6 312/1/6 322/1/6
f 313/3/6 303/3/6 323/3/6
f 322/3/6 313/3/6 323/3/6
f 314/1/6 315/1/6 324/1/6
f 323/3/6 303/3/6 324/3/6
f 303/1/6 314/1/6 324/1/6
f 324/1/6 315/1/6 325/1/6
f 325/1/6 315/1/6 326/1/6
f 316/1/6 317/1/6 327/1/6
f 317/6/6 318/6/6 328/6/6
f 327/1/6 317/1/6 328/1/6
f 319/3/6 320/3/6 329/3/6
f 328/6/6 318/6/6 329/6/6
f 318/3/6 319/3/6 329/3/6
f 320/1/6 321/1/6 330/1/6
f 329/3/6 320/3/6 330/3/6
f 321/6/6 322/6/6 331/6/6
f 330/1/6 321/1/6 331/1/6
f 322/6/6 323/6/6 331/6/6
f 324/1/6 325/1/6 332/1/6
f 331/6/6 323/6/6 332/6/6
f 323/1/6 324/1/6 332/1/6
f 325/3/6 326/3/6 333/3/6
f 332/1/6 325/1/6 333/1/6
f 333/3/6 326/3/6 334/3/6
